<svg xmlns="http://www.w3.org/2000/svg" width="900" height="320" viewBox="0 0 900 320">
<rect width="100%" height="100%" fill="#0d1117"/>
<text x="40" y="28" fill="#c9d1d9" font-family="Arial, sans-serif" font-size="20">Repositories over time</text>
<line x1="60" y1="270" x2="60" y2="40" stroke="#58a6ff" stroke-width="1.5"/>
<line x1="60" y1="270" x2="870" y2="270" stroke="#58a6ff" stroke-width="1.5"/>
<line x1="60" y1="40.0" x2="870" y2="40.0" stroke="#30363d" stroke-width="1" stroke-dasharray="4 3"/>
<line x1="60" y1="116.66666666666667" x2="870" y2="116.66666666666667" stroke="#30363d" stroke-width="1" stroke-dasharray="4 3"/>
<line x1="60" y1="193.33333333333334" x2="870" y2="193.33333333333334" stroke="#30363d" stroke-width="1" stroke-dasharray="4 3"/>
<line x1="60" y1="270.0" x2="870" y2="270.0" stroke="#30363d" stroke-width="1" stroke-dasharray="4 3"/>
<path d="M 60.0,270.0 L 161.25,270.0 L 262.5,270.0 L 363.75,270.0 L 465.0,270.0 L 566.25,270.0 L 667.5,193.33333333333334 L 768.75,193.33333333333334 L 870.0,40.0" fill="none" stroke="#7c3aed" stroke-width="3"/>
<circle cx="60.0" cy="270.0" r="4" fill="#58a6ff"/>
<circle cx="161.25" cy="270.0" r="4" fill="#58a6ff"/>
<circle cx="262.5" cy="270.0" r="4" fill="#58a6ff"/>
<circle cx="363.75" cy="270.0" r="4" fill="#58a6ff"/>
<circle cx="465.0" cy="270.0" r="4" fill="#58a6ff"/>
<circle cx="566.25" cy="270.0" r="4" fill="#58a6ff"/>
<circle cx="667.5" cy="193.33333333333334" r="4" fill="#58a6ff"/>
<circle cx="768.75" cy="193.33333333333334" r="4" fill="#58a6ff"/>
<circle cx="870.0" cy="40.0" r="4" fill="#58a6ff"/>
<text x="60.0" y="302" fill="#8b949e" font-family="Arial, sans-serif" font-size="11" text-anchor="middle">Nov 2025</text>
<text x="161.25" y="302" fill="#8b949e" font-family="Arial, sans-serif" font-size="11" text-anchor="middle">Dec 2025</text>
<text x="262.5" y="302" fill="#8b949e" font-family="Arial, sans-serif" font-size="11" text-anchor="middle">Jan 2026</text>
<text x="363.75" y="302" fill="#8b949e" font-family="Arial, sans-serif" font-size="11" text-anchor="middle">Feb 2026</text>
<text x="465.0" y="302" fill="#8b949e" font-family="Arial, sans-serif" font-size="11" text-anchor="middle">Mar 2026</text>
<text x="566.25" y="302" fill="#8b949e" font-family="Arial, sans-serif" font-size="11" text-anchor="middle">Apr 2026</text>
<text x="667.5" y="302" fill="#8b949e" font-family="Arial, sans-serif" font-size="11" text-anchor="middle">May 2026</text>
<text x="768.75" y="302" fill="#8b949e" font-family="Arial, sans-serif" font-size="11" text-anchor="middle">Jun 2026</text>
<text x="870.0" y="302" fill="#8b949e" font-family="Arial, sans-serif" font-size="11" text-anchor="middle">Jul 2026</text>
</svg>